<?xml version="1.0" encoding="UTF-8"?> <svg xmlns="http://www.w3.org/2000/svg" xmlns:xlink="http://www.w3.org/1999/xlink" version="1.1" id="Layer_1" x="0px" y="0px" viewBox="0 0 256.3 106.4" style="enable-background:new 0 0 256.3 106.4;" xml:space="preserve"> <style type="text/css"> .st0{fill:#3173F1;} .st1{fill:#E73024;} .st2{fill:#FCB000;} .st3{fill:#239B41;} .st4{fill:none;stroke:#FCB000;stroke-width:0.1213;stroke-miterlimit:10;} .st5{fill:#FFFFFF;} .st6{font-family:'Futura-Medium';} .st7{font-size:12px;} </style> <g> <g> <path class="st0" d="M63.6,36.2c7,0,14.1,0,21.1,0c0,0.7,0,1.5,0,2.2c0.2,2.3,0.3,5.9-1.3,9.8C83,49.4,82.1,51.6,80,54 c-2.4,2.8-5.1,4.1-6.5,4.7c-4.2,2-8,2.1-9.7,2.1c-4.6,0-8-1.2-8.7-1.5c-1.1-0.4-4.6-1.9-7.9-5.2c-3.1-3.1-4.4-6.2-4.8-7 c-0.3-0.8-1.7-4.2-1.7-9c0-4.7,1.5-8.2,2.1-9.4c0.5-1,1.9-4,5-6.9c3.1-3,6.3-4.4,7-4.7c3.7-1.5,6.9-1.6,9-1.6c1.5,0,3.8,0,6.5,0.9 c1.3,0.4,2.3,0.9,3.1,1.3c1.5,0.8,3.6,2,5.8,3.9c-1.5,1.4-3,2.9-4.5,4.3c-1.2-1.2-3.2-2.9-6.1-3.8c-1.8-0.5-3.3-0.5-4.3-0.6 c-3.4,0-5.8,0.9-6.7,1.2c-2.7,1.1-4.4,2.6-4.8,2.9c-1.8,1.6-2.7,3.2-3.2,4.1c-0.8,1.3-2.3,4.1-2.4,8c0,1.4,0.1,4.3,1.7,7.5 c0.4,0.8,1.5,2.9,3.8,4.9c0.6,0.5,4.5,4,10.5,4.3c2.3,0.1,4-0.2,4.5-0.3c2.6-0.6,4.4-1.8,5.2-2.3c2.2-1.5,3.3-3.2,3.6-3.7 c1.6-2.4,2-4.8,2.2-6.1c-5,0-10.1,0.1-15.1,0.1C63.5,40.3,63.6,38.3,63.6,36.2z"></path> <path class="st1" d="M86.9,45.9c0-4,1.4-7.4,4.3-10.1c2.8-2.8,6.3-4.2,10.4-4.2s7.6,1.4,10.5,4.2c2.8,2.8,4.2,6.3,4.2,10.3 c0,4.1-1.4,7.6-4.3,10.4s-6.4,4.2-10.5,4.2s-7.6-1.4-10.4-4.2C88.3,53.6,86.9,50.1,86.9,45.9z M93.4,46c0,2.8,0.7,4.9,2.2,6.5 s3.5,2.4,6,2.4s4.5-0.8,6-2.4c1.5-1.6,2.2-3.7,2.2-6.4s-0.7-4.8-2.2-6.4c-1.5-1.6-3.5-2.4-6-2.4c-2.4,0-4.4,0.8-5.9,2.4 C94.2,41.4,93.4,43.5,93.4,46z"></path> <path class="st2" d="M118.8,46.1c0-4,1.4-7.4,4.3-10.2s6.3-4.2,10.4-4.2c4.1,0,7.6,1.4,10.5,4.2c2.8,2.8,4.3,6.3,4.3,10.4 s-1.4,7.6-4.3,10.4c-2.9,2.8-6.4,4.2-10.6,4.2c-4.1,0-7.6-1.4-10.4-4.3C120.2,53.8,118.8,50.3,118.8,46.1z M125.3,46.2 c0,2.8,0.7,5,2.2,6.6s3.5,2.4,6,2.4s4.5-0.8,6-2.4c1.5-1.6,2.2-3.8,2.2-6.4c0-2.7-0.7-4.8-2.2-6.4c-1.5-1.6-3.5-2.4-6-2.4 c-2.4,0-4.4,0.8-5.9,2.4C126,41.5,125.3,43.6,125.3,46.2z"></path> <path class="st0" d="M178.6,59c0,0.8,0,1.8-0.2,3.1c-0.1,1-0.2,1.7-0.5,2.5c-0.4,1.4-1,2.4-1.6,3.3c-0.5,0.8-0.9,1.5-1.6,2.3 c-1.2,1.3-2.4,1.9-3.2,2.3c-2.8,1.4-5.5,1.6-6.3,1.6c-1.4,0-5.4-0.1-8.7-2.6c-0.9-0.7-1.7-1.5-2-1.9c-1.4-1.6-2.3-3.1-2.8-4.2 c1.9-0.8,3.7-1.6,5.6-2.3c0.4,0.9,1.1,2.2,2.5,3.4c1,0.8,1.9,1.2,2.1,1.3c1.5,0.6,2.8,0.6,3.2,0.6c0.6,0,2.8-0.1,4.6-1.6 c2.8-2.3,2.6-6,2.5-6.4c0-0.9,0-1.8,0.1-2.7c-0.7,0.7-2,1.8-4,2.6c-0.6,0.2-2.3,0.8-4.5,0.7c-2.5-0.1-4.2-1-5.6-1.7 c-1.2-0.6-2.6-1.3-3.9-2.8c-0.2-0.2-0.9-1.1-1.8-2.7c-0.8-1.5-2-4-2-7.4c0,0,0-3.8,1.8-6.8c0.1-0.2,0.6-0.9,1.3-1.9 c0.4-0.5,0.7-1,0.9-1.2c0.7-0.9,2-2.1,3.7-3.1c0.9-0.5,2.9-1.6,5.6-1.7c2.5-0.1,4.4,0.7,5.1,1.1c1.6,0.8,2.8,1.8,3.4,2.5 c0-0.8,0-1.6,0-2.4h6.2L178.6,59L178.6,59z M172.6,46.2c0-2.6-0.7-4.7-2.1-6.3c-1.4-1.6-3.2-2.4-5.5-2.4c-2.4,0-4.2,0.9-5.6,2.6 c-1.2,1.6-1.9,3.6-1.9,6.1s0.6,4.5,1.9,6c1.3,1.7,3.2,2.6,5.6,2.6s4.3-0.9,5.7-2.6C172,50.7,172.6,48.6,172.6,46.2z"></path> <path class="st3" d="M189.4,17.1v43h-6.5v-43C182.9,17.1,189.4,17.1,189.4,17.1z"></path> <path class="st1" d="M219,42.7c-6.6,2.7-13.1,5.4-19.7,8.1c0.3,0.6,0.9,1.3,1.7,2.1c0.5,0.5,1,1,1.9,1.5c1.3,0.6,2.5,0.6,3.7,0.6 c0.8,0,1.7,0,2.8-0.3c2.4-0.7,3.7-2.5,4.3-3.4c1.7,1.1,3.3,2.3,5,3.4c-0.5,0.6-1.2,1.4-2.1,2.3c-1.4,1.3-2.6,2-2.9,2.1 c-0.7,0.4-2.1,1.1-4.1,1.6c-2.5,0.6-4.4,0.4-4.8,0.3c-0.6-0.1-3.4-0.4-6.4-2.4c-0.4-0.3-1.5-1-2.5-2c-2.4-2.6-3.7-6.1-3.7-10.4 s1.2-7.7,3.5-10.4c0.2-0.3,1.2-1.2,2.7-2.2c0.9-0.5,3.9-2.4,8.1-2.1c0.8,0.1,2.6,0.3,4.6,1.2c0.4,0.2,2.3,1.1,4.1,3.1 C217.7,38.4,218.6,41.1,219,42.7z M211.5,40.2c-0.3-0.5-1.6-2.1-3.9-2.8c-2.6-0.7-4.7,0.4-5.3,0.8c-2.5,1.4-3.3,3.7-3.5,4.4 c-0.4,1.2-0.4,2.3-0.4,3C202.8,43.9,207.2,42,211.5,40.2z"></path> </g> <g> <polygon class="st2" points="61.4,79.9 58.1,83.2 58.9,87.7 54.8,85.6 50.6,87.8 51.4,83.2 48.1,79.9 52.7,79.2 54.7,75.1 56.8,79.2 "></polygon> <polygon class="st2" points="79.8,79.9 76.5,83.2 77.3,87.7 73.1,85.6 69,87.8 69.8,83.2 66.5,79.9 71.1,79.2 73.1,75.1 75.2,79.2 "></polygon> <polygon class="st2" points="96.8,79.9 93.4,83.2 94.2,87.7 90.1,85.6 86,87.8 86.8,83.2 83.4,79.9 88,79.2 90.1,75.1 92.2,79.2 "></polygon> <polygon class="st2" points="113,79.9 109.6,83.2 110.4,87.7 106.3,85.6 102.2,87.8 103,83.2 99.6,79.9 104.2,79.2 106.3,75.1 108.4,79.2 "></polygon> <g> <polygon class="st2" points="123,85.6 123,75.1 121,79.2 116.3,79.9 119.7,83.2 118.9,87.8 "></polygon> <polygon class="st4" points="129.7,79.9 125.1,79.3 123,75.2 123,85.5 123,85.5 127.2,87.7 126.4,83.1 "></polygon> </g> <text transform="matrix(1 0 0 1 133.5502 86.6465)" class="st5 st6 st7">4.8 Star Rating</text> </g> </g> </svg> 