<?xml version="1.0" encoding="UTF-8"?> <svg xmlns="http://www.w3.org/2000/svg" xmlns:xlink="http://www.w3.org/1999/xlink" version="1.1" id="Layer_1" x="0px" y="0px" viewBox="0 0 300 80.7" style="enable-background:new 0 0 300 80.7;" xml:space="preserve"> <style type="text/css"> .st0{clip-path:url(#SVGID_2_);} .st1{fill:#FFFFFF;} .st2{enable-background:new ;} </style> <g> <defs> <rect id="SVGID_1_" x="0" y="0" width="300" height="80.7"></rect> </defs> <clipPath id="SVGID_2_"> <use xlink:href="#SVGID_1_" style="overflow:visible;"></use> </clipPath> <g class="st0"> <g> <path class="st1" d="M9.5,35.7L9.6,33c0.1-3.2,1.8-6.2,4.6-7.9c4.8-2.9,9.8-5.1,15.5-4.9c2.5-0.1,4.9,0.9,6.6,2.7 c2,2.1,2.2,4.1,0.5,6.5c-1.1,1.5-2.4,2.9-3.7,4.3c-4.8,4.6-3.9,10.3-0.8,15c1.5,2.4,3.8,4.3,5.8,6.4c2.2,2.4,4.3,4.8,4.8,8.1 c0.8,5.1-2.9,10.5-8.4,12.4c-5.6,1.9-10.4,0.2-14.5-3.8c-2.9-2.9-4.8-6.5-5.8-10.5c-1.9-7.7-3.9-15.3-4.5-23.2 C9.5,37.4,9.5,36.6,9.5,35.7z"></path> <path class="st1" d="M41.1,45.4c-0.8-3.4-0.2-6.8,0.6-10.2c1-4.4,2.4-8.6,5.1-12.3c1.2-1.6,2.5-3.6,4.8-2.9 c2.4,0.7,2.5,3.1,2.7,5.1c0.4,4.6-0.7,9-2.2,13.3c-1,2.3-2,4.6-3.4,6.7c-0.5,0.8-1.1,1.5-1.8,2C44.2,49.3,41.9,48.5,41.1,45.4z"></path> <path class="st1" d="M39.6,8.1c-0.1,2.9-0.5,5.5-2.1,7.7c-0.8,1.2-1.9,2-3.4,1.7c-1.5-0.3-2.1-1.5-2.4-2.8 c-0.8-3.6-0.1-7.3,1.9-10.3c0.8-1.1,1.8-2.2,3.4-1.8c1.5,0.4,2,1.7,2.3,3C39.4,6.5,39.5,7.4,39.6,8.1z"></path> <path class="st1" d="M19.9,14.6c0,3.5-1.2,5.5-3,5.8c-1.5,0.2-3.2-1.3-4.2-3.8c-1-2.7-1.5-5.3-0.9-8.1c0.4-1.4,0.9-2.8,2.5-3.1 s2.5,0.8,3.3,2C18.9,9.5,19.7,12.1,19.9,14.6z"></path> <path class="st1" d="M21.1,10.2c0.5-1.7,0.9-3.7,1.5-5.6c0.4-1.2,1.5-2.3,2.8-2c1.1,0.4,2,1.1,2.5,2c1.7,3.4,1.8,7.3,0.3,10.7 c-0.6,1.4-1.5,2.5-3.2,2.4c-1.7-0.1-2.5-1.3-2.9-2.7S21.5,12.1,21.1,10.2z"></path> <path class="st1" d="M12.8,22.3c-0.4,0.6-0.9,1.9-1.8,2.6c-1.2,0.8-2.5,0.3-3.6-0.6c-2.9-2.5-4.6-6-4.6-9.8 c0-1.3,0.3-2.5,1.6-3.2c1.3-0.6,2.5,0,3.4,0.8C10.7,14.6,12.4,17.8,12.8,22.3z"></path> <g class="st2"> <path class="st1" d="M126,68.4h-3.3v2.2h3.1v1.7h-3.1v4.3h-1.9v-9.8h5.2V68.4z"></path> <path class="st1" d="M145,71.7c0,3-2.2,5.1-5.3,5.1c-3.1,0-5.3-2.1-5.3-5.1c0-3,2.2-5.2,5.3-5.2C142.8,66.6,145,68.7,145,71.7z M143,71.7c0-2-1.4-3.4-3.3-3.4c-1.9,0-3.3,1.4-3.3,3.4c0,2,1.4,3.4,3.3,3.4C141.7,75.1,143,73.7,143,71.7z"></path> <path class="st1" d="M156.9,66.8c1.4,0,2.1,0.4,2.5,0.7c0.8,0.6,1,1.5,1,2.2c0,1-0.4,1.8-1.2,2.3c-0.3,0.2-0.6,0.3-1.1,0.4 l3.1,4.1h-2.4l-2.6-4H156v4h-1.9v-9.8H156.9z M156,71.3h0.5c0.4,0,1.9,0,1.9-1.5c0-1.5-1.5-1.5-1.9-1.5H156V71.3z"></path> <path class="st1" d="M175.3,68.4h-3.5v2.2h3.4v1.7h-3.4V75h3.5v1.7h-5.5v-9.8h5.5V68.4z"></path> <path class="st1" d="M185.5,66.8l2.6,6.6l2.6-6.6h2.1l-4.2,9.8h-1.2l-4.1-9.8H185.5z"></path> <path class="st1" d="M206.8,68.4h-3.5v2.2h3.4v1.7h-3.4V75h3.5v1.7h-5.5v-9.8h5.5V68.4z"></path> <path class="st1" d="M218.8,66.8c1.4,0,2.1,0.4,2.5,0.7c0.8,0.6,1,1.5,1,2.2c0,1-0.4,1.8-1.2,2.3c-0.3,0.2-0.6,0.3-1.1,0.4 l3.1,4.1h-2.4l-2.6-4h-0.2v4h-1.9v-9.8H218.8z M217.8,71.3h0.5c0.4,0,1.9,0,1.9-1.5c0-1.5-1.5-1.5-1.9-1.5h-0.6V71.3z"></path> <path class="st1" d="M246.2,76.6h-1.4l-3.4-9.8h2l2.2,6.7l2.4-6.8h1.1l2.3,6.8l2.4-6.7h2l-3.6,9.8h-1.4l-2.2-6.2L246.2,76.6z"></path> <path class="st1" d="M266.1,66.8v9.8h-1.9v-9.8H266.1z"></path> <path class="st1" d="M277.6,66.8V75h3v1.7h-5v-9.8H277.6z"></path> <path class="st1" d="M291.8,66.8c1.4,0,2.6,0.1,3.7,1c1.2,0.9,1.9,2.3,1.9,4c0,1.6-0.7,3.1-2,4c-1.2,0.8-2.2,0.9-3.6,0.9h-2.5 v-9.8H291.8z M291.2,75h0.6c0.5,0,1.5,0,2.4-0.6c0.8-0.6,1.2-1.6,1.2-2.6c0-1-0.4-2-1.2-2.6c-0.8-0.6-1.8-0.6-2.4-0.6h-0.6V75z"></path> </g> </g> <g> <path class="st1" d="M106.4,35.7c-0.2,6.5-1.5,12.7-3,18.9c-1,4-2,8.1-3.6,11.8c-2.2,5.1-6,8.6-11.7,9.8 c-6.8,1.4-14.5-4.1-15.1-10.7c-0.3-3.2,1.1-6,3.1-8.4c1.7-1.9,3.6-3.6,5.3-5.5c2.5-2.5,4.1-5.8,4.6-9.3c0.4-2.6-0.4-5.3-2.1-7.3 c-1.4-1.6-2.9-3.2-4.3-4.9c-2.7-3.3-2-6.5,1.8-8.7c2.9-1.5,6.2-1.9,9.3-0.8c3.5,1.1,6.9,2.5,10.2,4.1c3.4,1.7,5.1,4.7,5.3,8.6 C106.3,34.2,106.4,35,106.4,35.7z"></path> <path class="st1" d="M77.7,42.7c0.1,3.7-1.9,5.1-4.8,3.8c-2.9-1.3-5.1-3.7-6.9-6.2c-3.2-4.4-5.9-8.9-6.6-14.4 c-0.1-0.6-0.1-1.2,0-1.8c0.4-2.4,2.1-3.6,4.2-2.4c2,1.1,3.7,2.5,5.2,4.1c4.1,4.2,7.1,9.5,8.6,15.2C77.5,41.5,77.6,42.1,77.7,42.7 z"></path> <path class="st1" d="M104.5,10.3c-0.2,3.4-0.8,6-2.2,8.3c-0.8,1.1-1.8,2-3.2,1.8c-1.3-0.2-2.4-1.3-2.6-2.6 c-1-4.1,0.1-8.3,2.9-11.4c1.3-1.6,3.3-1.3,4.3,0.6C104,8,104.3,9.1,104.5,10.3z"></path> <path class="st1" d="M84.6,12.6c-0.2,1.1-0.5,2.3-0.9,3.4c-0.8,1.8-2.7,2.1-4.2,0.9c-1.6-1.3-2.6-3.2-2.7-5.2 c-0.3-2.3-0.2-4.6,0.2-6.9c0.6-2.6,2.9-3,4.8-1.1C83.9,6,84.3,9,84.6,12.6z"></path> <path class="st1" d="M94.7,10.6c-0.4,1.7-0.6,3.4-1.3,5c-0.4,0.9-1.7,2-2.6,2c-1.1-0.1-2.2-0.8-2.8-1.8c-2.2-4-1.9-8.1,0.2-12 c1-1.8,3-1.9,4.4-0.2C94.2,5.6,94.5,8.1,94.7,10.6z"></path> <path class="st1" d="M113.2,14.2c-0.5,4.3-1.8,7.4-4.6,9.9c-1.1,1-2.3,1.5-3.7,0.8s-1.8-2-1.7-3.4c0.2-3.9,2.2-7.5,5.5-9.8 c0.7-0.6,2.4-0.8,2.9-0.4C112.5,12.1,112.9,13.5,113.2,14.2z"></path> </g> <g> <g> <path class="st1" d="M134.7,3.3h7.8v21.9h-7.8l-6.5-10v10h-7.8V3.3h7.8l6.5,10V3.3z"></path> <path class="st1" d="M153.7,12.2l4.5-8.9h9.1l-6,10.9l6.3,10.9h-9.3l-4.6-8.9v8.9h-8.3V3.3h8.3V12.2z"></path> <path class="st1" d="M181.8,3.3h8.9v13.5c0,1.7-0.4,3.2-1.4,4.5c-1,1.4-2.2,2.5-3.8,3.3c-1.6,0.8-3.4,1.2-5.3,1.2 c-1.9,0-3.7-0.4-5.3-1.2c-1.6-0.8-2.9-1.9-3.8-3.3c-1-1.4-1.4-2.9-1.4-4.5V3.3h8.9v13c0,0.5,0.1,0.9,0.4,1.2 c0.3,0.4,0.7,0.5,1.1,0.5s0.8-0.1,1.1-0.5c0.3-0.4,0.4-0.7,0.4-1.2v-13H181.8z"></path> <path class="st1" d="M215.2,25.2h-9.5l-3.8-8v7.9h-8.3V3.3h11.6c1.6,0,3.1,0.3,4.3,0.9s2.2,1.4,2.9,2.3c0.7,1,1,2.2,1,3.6 s-0.4,2.6-1,3.6c-0.7,1-1.6,1.8-2.9,2.4L215.2,25.2z M202,9v3.3h0.6c0.9,0,1.5-0.1,1.9-0.4c0.4-0.2,0.6-0.7,0.6-1.2 s-0.2-1-0.6-1.2s-1-0.4-1.9-0.4L202,9L202,9z"></path> <path class="st1" d="M225.6,25.2h-8.4V3.3h8.4V25.2z"></path> <path class="st1" d="M242.9,3.3h7.8v21.9h-7.8l-6.5-10v10h-7.8V3.3h7.8l6.5,10V3.3z"></path> <path class="st1" d="M273.4,23.6c-0.3,0.3-0.8,0.6-1.5,0.9c-0.7,0.3-1.6,0.6-2.7,0.9c-1.1,0.2-2.6,0.4-4.6,0.4s-3.7-0.4-5.4-1.2 c-1.6-0.7-2.9-1.8-4-3.2c-1-1.4-1.7-2.9-2.1-4.8c-0.1-0.7-0.2-1.5-0.2-2.4c0-0.8,0.1-1.6,0.2-2.4c0.4-1.8,1.1-3.4,2.2-4.8 s2.6-2.4,4.3-3.2c1.8-0.7,3.8-1.2,6.2-1.2c1,0,1.8,0.1,2.6,0.2c0.7,0.1,1.3,0.3,1.8,0.5c0.4,0.2,0.8,0.4,1.1,0.5v6.5 c-0.9-0.2-1.7-0.4-2.4-0.6s-1.7-0.1-2.6-0.1c-1.1,0-2,0.1-2.6,0.4c-0.7,0.3-1.2,0.7-1.5,1.4c-0.3,0.7-0.4,1.5-0.4,2.7 c0,1.2,0.1,2.3,0.4,2.9c0.3,0.7,0.7,1.2,1.4,1.4c0.7,0.3,1.5,0.3,2.7,0.1v-2.3H264v-4.6h9.5v12H273.4z"></path> <path class="st1" d="M275.6,14.3c0-1.8,0.3-3.4,0.9-4.8c0.6-1.5,1.5-2.6,2.5-3.7c1.1-1,2.3-1.8,3.7-2.3c1.4-0.5,2.9-0.8,4.5-0.8 c1.6,0,3.2,0.3,4.5,0.8s2.6,1.3,3.7,2.3s1.9,2.3,2.5,3.7c0.6,1.5,0.9,3,0.9,4.8s-0.3,3.4-0.9,4.8c-0.6,1.4-1.5,2.6-2.5,3.6 c-1.1,1-2.3,1.8-3.7,2.3c-1.4,0.5-2.9,0.8-4.5,0.8c-1.6,0-3.2-0.3-4.5-0.8c-1.4-0.5-2.6-1.2-3.7-2.3s-1.9-2.2-2.5-3.6 C275.9,17.7,275.6,16.1,275.6,14.3z M282.9,14.2c0,1,0.2,1.8,0.6,2.4c0.4,0.7,0.9,1.2,1.5,1.5c0.7,0.4,1.4,0.5,2.2,0.5 c0.8,0,1.5-0.1,2.2-0.5s1.2-0.9,1.5-1.5c0.4-0.7,0.6-1.5,0.6-2.4c0-1-0.2-1.8-0.6-2.4c-0.4-0.7-0.9-1.2-1.5-1.5 s-1.4-0.6-2.2-0.6c-0.8,0-1.5,0.2-2.2,0.6c-0.7,0.4-1.2,0.9-1.5,1.5C283.1,12.6,282.9,13.4,282.9,14.2z"></path> </g> </g> <g> <g> <path class="st1" d="M120.7,49.6c0.6,0.3,1.2,0.6,2,0.8c0.7,0.3,1.5,0.6,2.4,0.8c0.9,0.2,1.8,0.4,2.7,0.4c0.3,0,0.6,0,1-0.1 c0.4-0.1,0.6-0.2,0.8-0.4c0.2-0.2,0.4-0.5,0.4-0.8c0-0.3-0.1-0.6-0.5-0.8c-0.4-0.2-0.8-0.4-1.3-0.6c-0.5-0.2-1.1-0.4-1.7-0.6 c-0.1-0.1-0.3-0.1-0.5-0.1c-2-0.6-3.6-1.7-4.8-3.1c-1.2-1.3-1.8-3.2-1.8-5.3c0-3,1.3-5.3,3.8-6.9c2.5-1.5,5.5-2.4,8.7-2.4 c2.9,0,5.6,0.3,8.2,0.9v8.4c0,0-0.1,0-0.1-0.1c-0.4-0.1-0.9-0.4-1.5-0.6c-0.6-0.2-1.4-0.4-2.2-0.6c-0.8-0.2-1.7-0.3-2.6-0.3 c-0.6,0-1.1,0.1-1.5,0.3s-0.6,0.5-0.6,1c0,0.4,0.1,0.6,0.4,0.9s0.7,0.4,1.2,0.6c0.5,0.2,1.1,0.4,1.6,0.6 c0.3,0.1,0.6,0.2,0.9,0.3c1.1,0.4,2.2,0.8,3.2,1.5c1,0.6,1.8,1.5,2.5,2.5c0.9,1.5,1.3,3.1,1.1,4.7s-0.6,3.1-1.5,4.4 c-0.8,1.3-2.1,2.5-3.6,3.3c-0.8,0.5-1.8,0.8-2.7,1.1c-1,0.2-2,0.4-2.9,0.5c-1,0.1-2,0.1-2.9,0.1c-3.1,0-5.8-0.4-8.3-1.2 L120.7,49.6L120.7,49.6z"></path> <path class="st1" d="M156.8,54.9L156,59h-11.7l8.3-27.9h13.8l8.3,27.9H163l-0.8-4.1H156.8z M161,48.2l-1.5-7.9l-1.5,7.9H161z"></path> <path class="st1" d="M196.9,31.1v7.7h-8.6v3.4h7.8v7.2h-7.8v9.8h-10.9v-28H196.9z"></path> <path class="st1" d="M211.9,54.9l-0.8,4.1h-11.7l8.3-27.9h13.8l8.3,27.9h-11.7l-0.8-4.1H211.9z M216.1,48.2l-1.5-7.9l-1.5,7.9 H216.1z"></path> <path class="st1" d="M260.1,59H248l-4.9-10.2V59h-10.6V31.1h14.8c2.1,0,3.9,0.4,5.5,1.1c1.5,0.7,2.8,1.8,3.6,3 c0.9,1.3,1.3,2.8,1.3,4.6c0,1.8-0.4,3.2-1.3,4.6c-0.9,1.3-2.1,2.3-3.6,3.1L260.1,59z M243.1,38.5v4.2h0.8c1.1,0,1.9-0.1,2.4-0.5 c0.5-0.4,0.7-0.8,0.7-1.6s-0.2-1.3-0.7-1.6c-0.5-0.3-1.3-0.5-2.4-0.5H243.1z"></path> <path class="st1" d="M273.3,59h-10.7V31.1h10.7V59z"></path> <path class="st1" d="M277,49.6c0.6,0.3,1.2,0.6,2,0.8s1.5,0.6,2.4,0.8c0.9,0.2,1.8,0.4,2.7,0.4c0.3,0,0.6,0,1-0.1 s0.6-0.2,0.8-0.4c0.2-0.2,0.4-0.5,0.4-0.8c0-0.3-0.1-0.6-0.5-0.8c-0.4-0.2-0.8-0.4-1.3-0.6c-0.5-0.2-1.1-0.4-1.7-0.6 c-0.1-0.1-0.3-0.1-0.5-0.1c-2-0.6-3.6-1.7-4.8-3.1c-1.2-1.3-1.8-3.2-1.8-5.3c0-3,1.3-5.3,3.8-6.9c2.5-1.5,5.5-2.4,8.7-2.4 c2.9,0,5.6,0.3,8.2,0.9v8.4c0,0-0.1,0-0.1-0.1c-0.4-0.1-0.9-0.4-1.5-0.6s-1.4-0.4-2.2-0.6c-0.8-0.2-1.7-0.3-2.6-0.3 c-0.6,0-1.1,0.1-1.5,0.3c-0.4,0.2-0.6,0.5-0.6,1c0,0.4,0.1,0.6,0.4,0.9c0.3,0.2,0.7,0.4,1.2,0.6s1.1,0.4,1.6,0.6 c0.3,0.1,0.6,0.2,0.9,0.3c1.1,0.4,2.2,0.8,3.2,1.5c1,0.6,1.8,1.5,2.5,2.5c0.9,1.5,1.3,3.1,1.1,4.7s-0.6,3.1-1.5,4.4 c-0.9,1.3-2.1,2.5-3.6,3.3c-0.8,0.5-1.8,0.8-2.7,1.1c-1,0.2-2,0.4-2.9,0.5c-1,0.1-2,0.1-2.9,0.1c-3.1,0-5.8-0.4-8.3-1.2 L277,49.6L277,49.6z"></path> </g> </g> </g> </g> </svg> 