<?xml version="1.0" encoding="UTF-8"?> <svg xmlns="http://www.w3.org/2000/svg" xmlns:xlink="http://www.w3.org/1999/xlink" version="1.1" id="Layer_1" x="0px" y="0px" viewBox="0 0 256.3 106.4" style="enable-background:new 0 0 256.3 106.4;" xml:space="preserve"> <style type="text/css"> .st0{fill:#FFFFFF;} .st1{fill:#34E0A1;} .st2{fill:#4CA671;} .st3{font-family:'Futura-Medium';} .st4{font-size:14.2106px;} .st5{fill:none;} </style> <g> <title>Tripadvisor</title> <path class="st0" d="M221.2,41.6c-0.6,0-1.1,0.5-1.1,1.1s0.5,1.1,1.1,1.1s1.1-0.5,1.1-1.1C222.2,42.1,221.8,41.6,221.2,41.6z M221.2,43.7c-0.5,0-1-0.3-1-1c0-0.5,0.3-1,1-1c0.5,0,1,0.3,1,1C222.1,43.2,221.8,43.7,221.2,43.7L221.2,43.7z M221.6,42.6 c0-0.2-0.2-0.3-0.3-0.3H221v1h0.2V43h0.2l0.2,0.3h0.2l-0.2-0.3C221.6,42.7,221.6,42.7,221.6,42.6L221.6,42.6z M221.2,42.7H221v-0.3 h0.2c0.2,0,0.2,0,0.2,0.2L221.2,42.7L221.2,42.7z M93.7,31v-2.6h-3.9v15.2h3.9v-9.1c0-1.6,1.1-2.4,2.7-2.4h2.1v-3.7h-1.8 C95.3,28.4,94,29.1,93.7,31z M102.2,22.3c-1.3,0-2.4,1.1-2.4,2.4s1.1,2.4,2.4,2.4s2.4-1.1,2.4-2.4 C104.6,23.5,103.6,22.3,102.2,22.3L102.2,22.3z M100.2,43.7h3.9V28.4h-3.9V43.7L100.2,43.7z M122.9,36c0,4.3-3.5,7.9-7.9,7.9 c-1.6,0-3.4-0.5-4.7-1.6v5.8h-3.9V28.4h3.9v1.3c1.3-1,2.9-1.6,4.7-1.6C119.3,28.1,122.9,31.7,122.9,36L122.9,36L122.9,36z M118.9,36c0-2.4-1.9-4.3-4.3-4.3s-4.3,1.9-4.3,4.3s1.9,4.3,4.3,4.3S118.9,38.4,118.9,36L118.9,36L118.9,36z M190.9,34.7l-2.2-0.6 c-1.4-0.3-2.1-0.8-2.1-1.6s0.8-1.3,1.9-1.3c1.1,0,1.9,0.8,1.9,1.6V33h3.5v-0.2c0-2.7-2.2-4.7-5.6-4.7c-3.4,0-5.8,1.9-5.8,4.3 c0,1.9,1.3,3.5,3.7,4.2l2.2,0.6c1.6,0.5,2.2,1,2.2,1.9s-1,1.6-2.2,1.6c-1.4,0-2.2-0.8-2.2-2.2v-0.2h-3.9v0.2c0,3,2.6,5.3,6.1,5.3 s5.9-2.1,5.9-5.1C194.6,37.4,194,35.5,190.9,34.7L190.9,34.7z M136.8,28.4h3.9v15.2h-3.9v-1.3c-1.3,1-2.9,1.6-4.7,1.6 c-4.3,0-7.9-3.5-7.9-7.9s3.5-7.9,7.9-7.9c1.6,0,3.4,0.5,4.7,1.6V28.4L136.8,28.4z M136.8,36L136.8,36c0-2.4-1.9-4.3-4.3-4.3 c-2.4,0-4.3,1.9-4.3,4.3s1.9,4.3,4.3,4.3C134.8,40.3,136.8,38.4,136.8,36L136.8,36z M154.9,23h3.9v20.7h-3.9v-1.3 c-1.3,1-2.9,1.6-4.7,1.6c-4.3,0-7.9-3.5-7.9-7.9s3.5-7.9,7.9-7.9c1.6,0,3.4,0.5,4.7,1.6V23L154.9,23z M154.9,36 c0-2.4-1.9-4.3-4.3-4.3c-2.4,0-4.3,1.9-4.3,4.3s1.9,4.3,4.3,4.3l0,0C152.9,40.3,154.9,38.4,154.9,36z M177,43.7h3.9V28.4H177V43.7z M178.9,22.3c-1.3,0-2.4,1.1-2.4,2.4s1.1,2.4,2.4,2.4c1.3,0,2.4-1.1,2.4-2.4C181.4,23.5,180.2,22.3,178.9,22.3L178.9,22.3z M211.5,36c0,4.3-3.5,7.9-7.9,7.9c-4.3,0-7.9-3.5-7.9-7.9s3.5-7.9,7.9-7.9l0,0C208.1,28.1,211.5,31.7,211.5,36z M207.9,36 c0-2.4-1.9-4.3-4.3-4.3s-4.3,1.9-4.3,4.3s1.9,4.3,4.3,4.3l0,0C206,40.3,207.9,38.4,207.9,36z M91.7,23H76.6v3.5h5.6v17.2h3.9V26.5 h5.6V23L91.7,23L91.7,23z M167.6,39.5l-3.5-11.1h-4.2l5.3,15.2h4.7l5.3-15.2H171L167.6,39.5z M217.2,31v-2.6h-3.9v15.2h3.9v-9.1 c0-1.6,1.1-2.4,2.7-2.4h2.1v-3.7h-1.8C218.9,28.4,217.6,29.1,217.2,31z"></path> <circle class="st1" cx="54" cy="34.9" r="20.1"></circle> <path class="st0" d="M66.4,31l2.4-2.6h-5.3c-5.6-3.9-13.2-3.9-18.8,0h-5.3l2.4,2.6c-3,2.7-3.2,7.4-0.5,10.4c2.7,3,7.4,3.2,10.4,0.5 l0,0l2.4,2.6l2.4-2.6c3,2.7,7.7,2.6,10.4-0.5C69.6,38.4,69.4,33.7,66.4,31z M46.6,41.4c-2.7,0-5-2.2-5-5c0-2.7,2.2-5,5-5 c2.7,0,5,2.2,5,5l0,0C51.6,39.2,49.4,41.4,46.6,41.4z M54,36.3c0-3.2-2.4-6.1-5.6-7.4c3.5-1.4,7.5-1.4,11.1,0 C56.4,30.2,54,33.1,54,36.3L54,36.3z M61.4,41.4c-2.7,0-5-2.2-5-5c0-2.7,2.2-5,5-5c2.7,0,5,2.2,5,5S64.1,41.4,61.4,41.4L61.4,41.4z M61.4,33.9c-1.4,0-2.6,1.1-2.6,2.6c0,1.4,1.1,2.6,2.6,2.6c1.4,0,2.6-1.1,2.6-2.6l0,0C64,35,62.8,33.9,61.4,33.9L61.4,33.9z M49.2,36.5c0,1.4-1.1,2.6-2.6,2.6c-1.4,0-2.6-1.1-2.6-2.6c0-1.4,1.1-2.6,2.6-2.6l0,0C48.1,33.9,49.2,35,49.2,36.5L49.2,36.5z"></path> </g> <g> <g> <g> <circle class="st0" cx="107.4" cy="71.2" r="7.3"></circle> <circle class="st2" cx="107.4" cy="71.2" r="6.4"></circle> </g> <g> <circle class="st0" cx="90.9" cy="71.2" r="7.3"></circle> <circle class="st2" cx="90.9" cy="71.2" r="6.4"></circle> </g> <g> <circle class="st0" cx="73.8" cy="71.2" r="7.3"></circle> <circle class="st2" cx="73.8" cy="71.2" r="6.4"></circle> </g> <g> <circle class="st0" cx="57.5" cy="71.2" r="7.3"></circle> <circle class="st2" cx="57.5" cy="71.2" r="6.4"></circle> </g> <g> <circle class="st0" cx="41.5" cy="71.2" r="7.3"></circle> <circle class="st2" cx="41.5" cy="71.2" r="6.4"></circle> </g> </g> <text transform="matrix(1 0 0 1 118.4904 76.6055)" class="st0 st3 st4">5/5 User Rating</text> </g> <rect class="st5" width="256.3" height="106.4"></rect> </svg> 